<?xml version="1.0" standalone="no"?>
<svg
  width="600"
  height="600"
  viewBox="0 0 600 600"
  xmlns="http://www.w3.org/2000/svg"
>
  <g transform="translate(300,300)">
    <path d="M63,-121.2C77.4,-76.3,82,-52.2,98.7,-26.1C115.4,0,144.2,28.1,158.7,72.6C173.2,117,173.3,177.9,144.4,216.5C115.6,255.1,57.8,271.6,14.8,251.2C-28.2,230.8,-56.4,173.7,-82.1,134C-107.8,94.4,-130.9,72.2,-156.1,40C-181.3,7.8,-208.6,-34.4,-204.8,-72.8C-200.9,-111.2,-166,-145.8,-126.7,-182.7C-87.4,-219.6,-43.7,-258.8,-9.7,-245.5C24.3,-232.1,48.6,-166.2,63,-121.2Z" fill="#8ed1fc" />
  </g>
</svg>
  